<?xml version="1.0" encoding="UTF-8" standalone="no"?>
<svg
   width="148.89839"
   height="32"
   viewBox="0 0 148.89839 32"
   fill="none"
   version="1.1"
   id="svg11"
   sodipodi:docname="logo-dark.svg"
   inkscape:version="1.3 (0e150ed, 2023-07-21)"
   inkscape:export-filename="logo-dark.svg"
   inkscape:export-xdpi="96"
   inkscape:export-ydpi="96"
   xmlns:inkscape="http://www.inkscape.org/namespaces/inkscape"
   xmlns:sodipodi="http://sodipodi.sourceforge.net/DTD/sodipodi-0.dtd"
   xmlns="http://www.w3.org/2000/svg"
   xmlns:svg="http://www.w3.org/2000/svg">
  <sodipodi:namedview
     id="namedview11"
     pagecolor="#505050"
     bordercolor="#eeeeee"
     borderopacity="1"
     inkscape:showpageshadow="0"
     inkscape:pageopacity="0"
     inkscape:pagecheckerboard="0"
     inkscape:deskcolor="#505050"
     showgrid="false"
     inkscape:zoom="4.3260634"
     inkscape:cx="64.492814"
     inkscape:cy="-7.0502897"
     inkscape:window-width="1920"
     inkscape:window-height="953"
     inkscape:window-x="0"
     inkscape:window-y="32"
     inkscape:window-maximized="1"
     inkscape:current-layer="svg11" />
  <path
     d="M 0,8.42105 C 0,3.77023 3.77023,0 8.42105,0 H 23.5789 C 28.2298,0 32,3.77023 32,8.42105 V 23.5789 C 32,28.2298 28.2298,32 23.5789,32 H 8.42105 C 3.77023,32 0,28.2298 0,23.5789 Z"
     fill="#3c50e0"
     id="path1" />
  <defs
     id="defs11" />
  <text
     xml:space="preserve"
     style="font-weight:bold;font-size:21.3333px;font-family:'Ubuntu Mono';-inkscape-font-specification:'Ubuntu Mono Bold';fill:#ffffff;fill-opacity:1;stroke-width:0.997"
     x="35.362789"
     y="24.743952"
     id="text1"><tspan
       sodipodi:role="line"
       id="tspan1"
       x="35.362789"
       y="24.743952"
       style="font-style:normal;font-variant:normal;font-weight:normal;font-stretch:normal;font-family:Ubuntu;-inkscape-font-specification:Ubuntu">HealthMate</tspan></text>
  <path
     style="fill:#ffffff;fill-opacity:1;stroke:none;stroke-width:0.0441862"
     d="m 4.544788,15.157508 c -0.3727977,0.03279 -0.7898738,0.334484 -0.5142334,0.744038 0.2443321,0.363034 0.7216143,0.05006 1.0173377,0.274173 0.2062453,0.156303 0.3290349,0.466694 0.4711377,0.67854 0.3048086,0.454408 0.6396846,0.887461 0.9746426,1.319695 1.6735375,2.159546 3.7180164,4.038559 5.7807584,5.817198 0.512578,0.44198 1.033704,0.872256 1.555355,1.303512 0.225686,0.186576 0.504783,0.48332 0.801244,0.54249 0.410435,0.08192 0.842827,-0.428621 1.131167,-0.659375 0.984485,-0.787868 1.966969,-1.604633 2.875051,-2.479665 0.29136,-0.280759 1.131466,-0.873118 0.515866,-1.2842 -0.449767,-0.300345 -0.985206,0.399245 -1.269982,0.670175 -0.720725,0.68569 -1.493232,1.323799 -2.262331,1.954231 -0.212088,0.173849 -0.60604,0.653301 -0.895507,0.653301 -0.223913,0 -0.497908,-0.315622 -0.659848,-0.449426 C 13.49296,23.769172 12.918789,23.295361 12.368695,22.796414 10.196226,20.825939 7.6433751,18.700199 6.1944066,16.100148 h 3.2521065 c 0.3455673,0 0.9763509,0.120892 1.2540149,-0.12503 0.217228,-0.192395 0.258285,-0.598605 0.334762,-0.864741 0.207594,-0.722422 0.397493,-1.45212 0.626425,-2.168071 0.802403,1.864517 1.224167,3.960013 1.853712,5.891496 0.145312,0.445823 0.298409,1.814413 0.974025,1.67744 0.326505,-0.0662 0.399141,-0.413311 0.478157,-0.687669 0.1864,-0.647223 0.394956,-1.292789 0.606023,-1.932411 0.18388,-0.557229 0.43288,-1.164211 0.518488,-1.743882 h 1.131169 0.659843 c 0.423863,-2.6e-5 1.244057,-0.425525 0.563002,-0.844157 -0.525423,-0.322969 -1.701503,-0.09872 -2.306881,-0.09848 -0.239578,8.8e-5 -0.506039,-0.01249 -0.696251,0.161143 -0.226321,0.206596 -0.298607,0.683425 -0.381129,0.970024 -0.196869,0.68372 -0.378283,1.423593 -0.666503,2.073806 -0.77524,-1.748908 -1.166219,-3.741514 -1.759448,-5.561572 -0.152914,-0.469152 -0.288928,-0.944007 -0.439535,-1.413962 -0.06476,-0.202097 -0.105691,-0.441687 -0.303957,-0.558819 -0.511962,-0.302457 -0.725051,0.336054 -0.82972,0.700215 -0.333227,1.159358 -0.842496,2.387514 -1.003481,3.58203 H 6.8542551 c -0.30849,0 -0.9420495,0.120591 -1.2070305,-0.04844 C 5.270056,14.868474 5.086605,13.962645 4.986613,13.555025 4.4892637,11.527559 5.6489456,9.2006038 7.3255741,8.065059 8.9973411,6.9328052 11.091581,6.7943469 12.887147,7.7228423 c 0.40608,0.2099872 0.791658,0.4916667 1.131167,0.7970988 0.195974,0.1763029 0.376371,0.4346431 0.659848,0.4574268 0.394259,0.031685 0.667547,-0.3936114 0.942639,-0.6160611 0.537357,-0.4345296 1.132246,-0.7863482 1.791014,-1.0032273 2.946774,-0.9701324 6.593686,1.0317706 7.022666,4.2174025 -1.089241,-0.003 -2.052803,0.09184 -2.969315,0.761602 -2.047141,1.495996 -2.252193,4.599961 -0.424154,6.35347 2.531341,2.428133 6.782338,0.664957 7.018411,-2.77893 0.08696,-1.268607 -0.487538,-2.494194 -1.409744,-3.341971 C 26.33996,12.284926 25.679294,12.104235 25.470837,11.759063 25.274546,11.434039 25.275004,10.904685 25.148004,10.538578 24.868518,9.7329088 24.432609,8.9586488 23.860859,8.3233753 22.096304,6.3627847 19.377181,5.6831584 16.893367,6.5325063 16.355043,6.7165864 15.847335,6.9971694 15.385141,7.3270227 15.214496,7.4488061 14.942806,7.771176 14.725294,7.771176 c -0.16368,0 -0.305854,-0.1794999 -0.424188,-0.2721009 C 14.006125,7.2682422 13.685683,7.0648708 13.358466,6.8829782 12.566999,6.4430174 11.577614,6.1781875 10.671944,6.1559952 7.0167171,6.0664307 3.8942798,9.0626638 3.9322538,12.753781 c 0.00878,0.853767 0.3089903,1.621341 0.6125342,2.403731 m 19.135577,-2.673067 c 3.309344,-0.395785 4.640306,4.255779 1.932413,5.933938 -0.384923,0.238548 -0.822226,0.393726 -1.272564,0.449062 -3.27811,0.402807 -4.983144,-3.980599 -2.215204,-5.846365 0.470116,-0.316886 0.996806,-0.469835 1.555355,-0.536635 m -0.235656,2.720199 c -0.426909,0 -1.067889,-0.118244 -1.456655,0.08335 -0.292661,0.151762 -0.318526,0.587869 -0.04646,0.777168 0.331362,0.230547 1.110553,0.08212 1.503095,0.08212 0,0.409353 -0.14202,1.151484 0.08757,1.505496 0.191777,0.295708 0.634735,0.266233 0.792956,-0.04531 0.190098,-0.37433 0.06212,-1.047211 0.06212,-1.460182 0.392549,0 1.171733,0.14843 1.503102,-0.08212 0.27208,-0.189299 0.246215,-0.625406 -0.04646,-0.777169 -0.388766,-0.201598 -1.02974,-0.08335 -1.456656,-0.08335 0,-0.410564 0.140188,-1.144536 -0.09848,-1.498149 -0.181391,-0.268757 -0.619411,-0.242139 -0.770039,0.042 -0.19941,0.376166 -0.07412,1.039877 -0.07412,1.456146 m -3.252106,4.841319 c -0.593744,0.0693 -0.509341,0.962242 0.09423,0.901761 0.581346,-0.05825 0.488812,-0.969809 -0.09423,-0.901761 z"
     id="path1-3" />
</svg>
